<?xml version="1.0" encoding="UTF-8"?>
<!DOCTYPE svg PUBLIC "-//W3C//DTD SVG 1.1//EN" "http://www.w3.org/Graphics/SVG/1.1/DTD/svg11.dtd">
<!-- Creator: CorelDRAW X8 -->
<svg xmlns="http://www.w3.org/2000/svg" xml:space="preserve" width="206.462mm" height="210mm" version="1.1" style="shape-rendering:geometricPrecision; text-rendering:geometricPrecision; image-rendering:optimizeQuality; fill-rule:evenodd; clip-rule:evenodd"
viewBox="0 0 903 918"
 xmlns:xlink="http://www.w3.org/1999/xlink">
 <defs>
  <style type="text/css">
   <![CDATA[
    .fil0 {fill:black}
   ]]>
  </style>
 </defs>
 <g id="Vrstva_x0020_1">
  <metadata id="CorelCorpID_0Corel-Layer"/>
  <g id="_1871216282544">
   <g>
    <path class="fil0" d="M499 918c-43,0 -28,-90 -28,-90 0,0 -91,-250 -178,-317 -18,-19 -30,-41 -37,-58l0 0 0 0c-2,-5 -3,-9 -5,-13 -5,-11 -18,-30 -44,-46l86 -376c0,0 135,-18 269,-15 54,-4 111,-5 156,5 155,33 116,140 116,140 83,63 36,141 36,141 74,77 1,142 1,142 0,0 40,62 -11,109 -65,59 -240,20 -240,20l0 0c-12,-2 -25,-5 -39,-8 0,0 -60,-28 0,155 61,183 -40,211 -82,211z"/>
    <path class="fil0" d="M231 45l-66 312c-3,18 -21,32 -39,32l-126 0 0 -377 205 0c18,0 30,15 26,33z"/>
   </g>
  </g>
 </g>
</svg>
