<?xml version="1.0" encoding="UTF-8"?>
<!DOCTYPE svg PUBLIC "-//W3C//DTD SVG 1.1//EN" "http://www.w3.org/Graphics/SVG/1.1/DTD/svg11.dtd">
<!-- Creator: CorelDRAW X8 -->
<svg xmlns="http://www.w3.org/2000/svg" xml:space="preserve" width="206.496mm" height="209.86mm" version="1.1" style="shape-rendering:geometricPrecision; text-rendering:geometricPrecision; image-rendering:optimizeQuality; fill-rule:evenodd; clip-rule:evenodd"
viewBox="0 0 764 777"
 xmlns:xlink="http://www.w3.org/1999/xlink">
 <defs>
  <style type="text/css">
   <![CDATA[
    .fil0 {fill:#C20000}
   ]]>
  </style>
 </defs>
 <g id="Vrstva_x0020_1">
  <metadata id="CorelCorpID_0Corel-Layer"/>
  <g id="_1871534108560">
   <g id="_1871216282544">
    <g>
     <path class="fil0" d="M422 777c-36,0 -23,-76 -23,-76 0,0 -77,-212 -151,-269 -15,-16 -25,-34 -31,-49l0 0 0 0c-2,-4 -3,-7 -5,-11 -4,-9 -15,-25 -37,-39l73 -318c0,0 114,-15 228,-13 45,-3 93,-4 132,5 131,28 98,118 98,118 70,53 30,119 30,119 63,66 1,121 1,121 0,0 34,52 -9,92 -55,50 -203,17 -203,17l0 0c-11,-2 -22,-4 -33,-7 0,0 -51,-24 0,131 51,155 -34,179 -70,179l0 0z"/>
     <path class="fil0" d="M195 38l-55 264c-3,15 -18,27 -33,27l-107 0 0 -319 173 0c16,0 26,13 22,28l0 0z"/>
    </g>
   </g>
  </g>
 </g>
</svg>
