<?xml version="1.0" encoding="UTF-8"?>
<!DOCTYPE svg PUBLIC "-//W3C//DTD SVG 1.1//EN" "http://www.w3.org/Graphics/SVG/1.1/DTD/svg11.dtd">
<!-- Creator: CorelDRAW X8 -->
<svg xmlns="http://www.w3.org/2000/svg" xml:space="preserve" width="135.368mm" height="116.05mm" version="1.1" style="shape-rendering:geometricPrecision; text-rendering:geometricPrecision; image-rendering:optimizeQuality; fill-rule:evenodd; clip-rule:evenodd"
viewBox="0 0 318 273"
 xmlns:xlink="http://www.w3.org/1999/xlink">
 <defs>
  <style type="text/css">
   <![CDATA[
    .fil2 {fill:#2B2A29}
    .fil0 {fill:black}
    .fil1 {fill:#FEFEFE;fill-rule:nonzero}
   ]]>
  </style>
 </defs>
 <g id="Vrstva_x0020_1">
  <metadata id="CorelCorpID_0Corel-Layer"/>
  <g id="_1871218984288">
   <g>
    <path class="fil0" d="M297 57c-14,-18 -34,-32 -58,-42 -24,-10 -51,-15 -80,-15 -21,0 -42,3 -62,9 -19,6 -36,14 -50,24 -15,10 -26,22 -34,36 -9,15 -13,29 -13,45 0,17 5,34 16,49 11,16 25,29 44,40 -1,4 -3,9 -5,13 -1,4 -3,8 -4,11 -2,2 -4,5 -6,9 -3,3 -4,5 -6,7 -1,1 -3,3 -6,6 -3,3 -4,6 -5,6 0,1 -1,1 -2,2 -1,1 -1,2 -1,2l-1 1c-1,1 -1,2 -1,2 0,0 0,1 0,2 0,1 0,1 0,2l0 0c0,2 1,4 3,5 2,1 3,2 5,2 8,-1 15,-3 21,-4 31,-8 58,-22 81,-43 9,1 18,1 26,1 29,0 56,-5 80,-15 24,-10 44,-24 58,-41 14,-18 21,-37 21,-57 0,-21 -7,-40 -21,-57z"/>
   </g>
   <g>
   </g>
   <g>
   </g>
   <g>
   </g>
   <g>
   </g>
   <g>
   </g>
   <g>
   </g>
   <g>
   </g>
   <g>
   </g>
   <g>
   </g>
   <g>
   </g>
   <g>
   </g>
   <g>
   </g>
   <g>
   </g>
   <g>
   </g>
   <g>
   </g>
  </g>
  <g id="_1871533304928">
   <path class="fil1" d="M217 156c3,4 3,10 0,14 -4,3 -10,3 -14,0l-67 -68c-3,-3 -3,-9 0,-13 4,-4 10,-4 14,0l67 67z"/>
   <circle class="fil2" cx="143" cy="96" r="35"/>
   <path class="fil1" d="M143 51c12,0 23,5 31,13 8,8 13,19 13,32 0,12 -5,23 -13,31 -8,8 -19,13 -31,13 -12,0 -23,-5 -31,-13 -8,-8 -13,-19 -13,-31 0,-13 5,-24 13,-32 8,-8 19,-13 31,-13zm18 27c-5,-5 -11,-8 -18,-8 -7,0 -14,3 -18,8 -5,4 -8,11 -8,18 0,7 3,13 8,18 4,4 11,7 18,7 7,0 13,-3 18,-7 5,-5 7,-11 7,-18 0,-7 -2,-14 -7,-18z"/>
  </g>
 </g>
</svg>
