<?xml version="1.0" encoding="UTF-8"?>
<!DOCTYPE svg PUBLIC "-//W3C//DTD SVG 1.1//EN" "http://www.w3.org/Graphics/SVG/1.1/DTD/svg11.dtd">
<!-- Creator: CorelDRAW X8 -->
<svg xmlns="http://www.w3.org/2000/svg" xml:space="preserve" width="130.904mm" height="206.462mm" version="1.1" style="shape-rendering:geometricPrecision; text-rendering:geometricPrecision; image-rendering:optimizeQuality; fill-rule:evenodd; clip-rule:evenodd"
viewBox="0 0 352 554"
 xmlns:xlink="http://www.w3.org/1999/xlink">
 <defs>
  <style type="text/css">
   <![CDATA[
    .fil0 {fill:black}
   ]]>
  </style>
 </defs>
 <g id="Vrstva_x0020_1">
  <metadata id="CorelCorpID_0Corel-Layer"/>
  <path class="fil0" d="M38 374c12,12 25,19 36,23 2,1 5,2 7,3 7,4 19,11 28,27l232 -53c0,0 10,-82 9,-165 2,-33 3,-68 -3,-96 -21,-94 -87,-71 -87,-71 -38,-51 -86,-22 -86,-22 -47,-45 -87,0 -87,0 0,0 -38,-25 -67,7 -36,39 -12,146 -12,146l0 0c1,8 3,16 5,24 21,65 -9,108 25,177z"/>
  <path class="fil0" d="M324 412l-192 41c-10,2 -19,13 -19,24l0 77 231 0 0 -125c0,-12 -9,-19 -20,-17z"/>
 </g>
</svg>
