<?xml version="1.0" encoding="UTF-8"?>
<!DOCTYPE svg PUBLIC "-//W3C//DTD SVG 1.1//EN" "http://www.w3.org/Graphics/SVG/1.1/DTD/svg11.dtd">
<!-- Creator: CorelDRAW X8 -->
<svg xmlns="http://www.w3.org/2000/svg" xml:space="preserve" width="206.462mm" height="210mm" version="1.1" style="shape-rendering:geometricPrecision; text-rendering:geometricPrecision; image-rendering:optimizeQuality; fill-rule:evenodd; clip-rule:evenodd"
viewBox="0 0 894 909"
 xmlns:xlink="http://www.w3.org/1999/xlink">
 <defs>
  <style type="text/css">
   <![CDATA[
    .fil0 {fill:#1F9900}
   ]]>
  </style>
 </defs>
 <g id="Vrstva_x0020_1">
  <metadata id="CorelCorpID_0Corel-Layer"/>
  <g id="_1871522731280">
   <g>
    <g>
     <path class="fil0" d="M494 0c-42,0 -28,90 -28,90 0,0 -90,247 -176,313 -18,19 -29,41 -37,58l0 0 0 0c-1,4 -3,8 -4,12 -6,12 -18,30 -44,46l85 373c0,0 133,17 266,14 54,5 110,5 155,-5 153,-32 115,-139 115,-139 82,-61 35,-139 35,-139 73,-76 1,-140 1,-140 0,0 40,-62 -11,-108 -64,-59 -237,-20 -237,-20l0 0c-12,2 -25,5 -38,8 0,0 -60,28 0,-154 60,-181 -40,-209 -82,-209z"/>
     <path class="fil0" d="M229 865l-65 -309c-4,-18 -22,-32 -40,-32l-124 0 0 373 203 0c18,0 30,-14 26,-32z"/>
    </g>
   </g>
   <g>
   </g>
   <g>
   </g>
   <g>
   </g>
   <g>
   </g>
   <g>
   </g>
   <g>
   </g>
   <g>
   </g>
   <g>
   </g>
   <g>
   </g>
   <g>
   </g>
   <g>
   </g>
   <g>
   </g>
   <g>
   </g>
   <g>
   </g>
   <g>
   </g>
  </g>
 </g>
</svg>
