<?xml version="1.0" encoding="UTF-8"?>
<!DOCTYPE svg PUBLIC "-//W3C//DTD SVG 1.1//EN" "http://www.w3.org/Graphics/SVG/1.1/DTD/svg11.dtd">
<!-- Creator: CorelDRAW X8 -->
<svg xmlns="http://www.w3.org/2000/svg" xml:space="preserve" width="135.368mm" height="116.05mm" version="1.1" style="shape-rendering:geometricPrecision; text-rendering:geometricPrecision; image-rendering:optimizeQuality; fill-rule:evenodd; clip-rule:evenodd"
viewBox="0 0 296 254"
 xmlns:xlink="http://www.w3.org/1999/xlink">
 <defs>
  <style type="text/css">
   <![CDATA[
    .fil1 {fill:#FEFEFE}
    .fil0 {fill:black}
   ]]>
  </style>
 </defs>
 <g id="Vrstva_x0020_1">
  <metadata id="CorelCorpID_0Corel-Layer"/>
  <g id="_1871397385968">
   <g>
    <path class="fil0" d="M277 53c-14,-17 -32,-29 -54,-39 -23,-9 -48,-14 -75,-14 -20,0 -39,3 -57,8 -19,6 -34,13 -48,23 -13,9 -23,21 -31,34 -8,13 -12,27 -12,41 0,16 5,32 15,46 10,15 24,27 41,37 -1,4 -3,8 -4,12 -2,4 -4,8 -5,10 -1,3 -3,5 -5,9 -2,3 -4,5 -5,6 -2,1 -3,3 -6,6 -3,3 -4,5 -5,6 0,0 -1,1 -2,2 0,0 -1,1 -1,1l-1 1c0,1 0,2 0,2 0,0 0,1 -1,2 0,1 0,1 0,2l0 0c1,2 2,3 3,5 2,1 3,1 5,1 7,-1 14,-2 19,-4 29,-7 54,-20 76,-40 9,1 16,2 24,2 27,0 52,-5 75,-14 22,-10 40,-23 54,-39 13,-16 19,-34 19,-53 0,-19 -6,-37 -19,-53z"/>
   </g>
   <g>
   </g>
   <g>
   </g>
   <g>
   </g>
   <g>
   </g>
   <g>
   </g>
   <g>
   </g>
   <g>
   </g>
   <g>
   </g>
   <g>
   </g>
   <g>
   </g>
   <g>
   </g>
   <g>
   </g>
   <g>
   </g>
   <g>
   </g>
   <g>
   </g>
  </g>
  <path class="fil1" d="M200 97c-11,-2 -16,-14 -9,-23l4 -6 -9 -10 -6 5c-9,5 -21,0 -23,-10l-1 -8 -13 0 -2 9c-2,11 -14,16 -23,10l-7 -6 -10 10 5 6c6,9 1,21 -9,23l-7 1 0 14 7 1c11,1 16,14 10,22l-4 6 9 10 6 -5c9,-6 21,-1 23,9l2 7 13 0 1 -5c2,-11 14,-16 23,-9l4 3 10 -10 -4 -6c-6,-8 -1,-21 9,-22l8 -1 0 -14 -7 -1zm-51 18c-5,0 -10,-4 -10,-10 0,-6 5,-10 10,-10 6,0 10,4 10,10 0,6 -4,10 -10,10z"/>
 </g>
</svg>
