<?xml version="1.0" encoding="UTF-8"?>
<!DOCTYPE svg PUBLIC "-//W3C//DTD SVG 1.1//EN" "http://www.w3.org/Graphics/SVG/1.1/DTD/svg11.dtd">
<!-- Creator: CorelDRAW X8 -->
<svg xmlns="http://www.w3.org/2000/svg" xml:space="preserve" width="312.208mm" height="312.208mm" version="1.1" style="shape-rendering:geometricPrecision; text-rendering:geometricPrecision; image-rendering:optimizeQuality; fill-rule:evenodd; clip-rule:evenodd"
viewBox="0 0 11061 11061"
 xmlns:xlink="http://www.w3.org/1999/xlink">
 <defs>
  <style type="text/css">
   <![CDATA[
    .fil1 {fill:#FEFEFE}
    .fil0 {fill:#E06797}
   ]]>
  </style>
 </defs>
 <g id="Vrstva_x0020_1">
  <metadata id="CorelCorpID_0Corel-Layer"/>
  <circle class="fil0" cx="5530" cy="5530" r="5530"/>
  <path class="fil1" d="M7082 2626c373,-374 979,-374 1353,0 373,374 373,980 0,1353l-1353 -1353zm338 1860l-3099 3100 -64 571 3417 -3417 0 0 -254 -254zm-3839 2994l570 -63 3100 -3100 -508 -507 -3099 3099 -63 571zm2993 -3839l-253 -254 0 0 -3417 3417 571 -64 3099 -3099zm1607 592l0 0 254 -254 -1353 -1353 -254 254 0 0 1353 1353zm-1522 -1184l0 0 -169 169 0 0 1353 1353 0 0 169 -169 0 0 -1353 -1353zm-2588 4617l-613 68c-4,1 -8,1 -13,1 0,0 0,0 0,0l0 0 0 0c0,0 0,0 0,0 -4,0 -9,0 -13,-1 -5,0 -8,-3 -13,-4 -9,-2 -17,-4 -25,-8 -6,-3 -11,-6 -16,-10 -7,-5 -13,-10 -19,-16 -4,-5 -8,-9 -12,-15 -4,-7 -8,-14 -11,-22 -3,-6 -5,-12 -6,-19 -1,-4 -3,-7 -4,-11 0,-5 2,-9 2,-13 0,-5 -2,-9 -2,-14l68 -612 -612 68c-5,0 -9,1 -13,1 -10,0 -19,-3 -28,-5l-342 1439 252 -252c46,-47 122,-47 169,0 46,47 46,122 0,169l-252 252 1439 -342c-4,-13 -6,-27 -4,-41l68 -613zm-1251 575c-47,-47 -123,-47 -169,0l-252 252 -53 222 222 -53 252 -252c46,-47 46,-122 0,-169zm5361 -4008l-1353 -1353 0 0 -169 169 0 0 1353 1353 0 0 169 -169zm-930 84l-3100 3100 -570 63 63 -571 3099 -3099 -169 -169 -3099 3099 -571 64 -135 135 -28 115c9,2 18,5 27,5 5,0 9,-1 14,-1l612 -68 -68 612c0,5 1,9 1,13 0,5 -1,9 -1,14 1,4 3,7 4,11 1,6 3,13 6,19 3,8 6,15 11,22 4,5 8,11 12,15 6,6 12,11 19,16 5,4 10,8 16,10 8,4 16,6 25,8 5,1 8,4 13,4 4,1 8,1 13,1l0 0 0 0 0 0 0 0c0,0 0,0 0,0l0 0c5,0 9,0 13,-1l613 -68 -68 613c-2,14 0,28 4,41l115 -28 135 -135 64 -571 3099 -3099 -169 -170zm592 254l-1353 -1353 0 0 -169 169 0 0 253 254 169 169 508 507 169 169 254 254 0 0 169 -169z"/>
 </g>
</svg>
