<?xml version="1.0" encoding="UTF-8"?>
<!DOCTYPE svg PUBLIC "-//W3C//DTD SVG 1.1//EN" "http://www.w3.org/Graphics/SVG/1.1/DTD/svg11.dtd">
<!-- Creator: CorelDRAW X8 -->
<svg xmlns="http://www.w3.org/2000/svg" xml:space="preserve" width="140.027mm" height="140.025mm" version="1.1" style="shape-rendering:geometricPrecision; text-rendering:geometricPrecision; image-rendering:optimizeQuality; fill-rule:evenodd; clip-rule:evenodd"
viewBox="0 0 18177 18177"
 xmlns:xlink="http://www.w3.org/1999/xlink">
 <defs>
  <style type="text/css">
   <![CDATA[
    .fil0 {fill:none;fill-rule:nonzero}
    .fil1 {fill:white;fill-rule:nonzero}
   ]]>
  </style>
 </defs>
 <g id="Vrstva_x0020_1">
  <metadata id="CorelCorpID_0Corel-Layer"/>
  <path class="fil0" d="M18177 9089c0,-5020 -4069,-9089 -9088,-9089 -5020,0 -9089,4069 -9089,9089 0,5019 4069,9088 9089,9088 5019,0 9088,-4069 9088,-9088z"/>
  <path class="fil1" d="M14382 5245l-10587 0c-203,0 -367,164 -367,367l0 879c0,202 164,366 367,366l10587 0c203,0 367,-164 367,-366l0 -879c0,-203 -164,-367 -367,-367z"/>
  <path class="fil1" d="M14382 11320l-10587 0c-203,0 -367,164 -367,366l0 879c0,203 164,367 367,367l10587 0c203,0 367,-164 367,-367l0 -879c0,-202 -164,-366 -367,-366z"/>
  <path class="fil1" d="M14382 8283l-10587 0c-203,0 -367,164 -367,366l0 879c0,203 164,367 367,367l10587 0c203,0 367,-164 367,-367l0 -879c0,-202 -164,-366 -367,-366z"/>
 </g>
</svg>
