<?xml version="1.0" encoding="UTF-8"?>
<!DOCTYPE svg PUBLIC "-//W3C//DTD SVG 1.1//EN" "http://www.w3.org/Graphics/SVG/1.1/DTD/svg11.dtd">
<!-- Creator: CorelDRAW X8 -->
<svg xmlns="http://www.w3.org/2000/svg" xml:space="preserve" width="47.8888mm" height="264.582mm" version="1.1" style="shape-rendering:geometricPrecision; text-rendering:geometricPrecision; image-rendering:optimizeQuality; fill-rule:evenodd; clip-rule:evenodd"
viewBox="0 0 395 2183"
 xmlns:xlink="http://www.w3.org/1999/xlink">
 <defs>
  <style type="text/css">
   <![CDATA[
    .fil0 {fill:#CCCCCC;fill-rule:nonzero}
    .fil1 {fill:white;fill-rule:nonzero}
   ]]>
  </style>
 </defs>
 <g id="Vrstva_x0020_1">
  <metadata id="CorelCorpID_0Corel-Layer"/>
  <path class="fil0" d="M0 1091c0,-602 177,-1091 395,-1091l0 2183c-218,0 -395,-489 -395,-1092z"/>
  <g id="_1871523664880">
   <path class="fil1" d="M78 1080l96 -95c3,-3 7,-3 9,-1 3,3 5,7 5,12l0 190c0,5 -2,10 -5,12 -1,2 -3,2 -4,2 -2,0 -3,-1 -5,-2l-96 -94c-3,-3 -4,-7 -4,-12 0,-5 1,-10 4,-12z"/>
   <path class="fil1" d="M204 1080l96 -95c3,-3 7,-3 9,-1 3,3 5,7 5,12l0 190c0,5 -2,10 -5,12 -1,2 -3,2 -4,2 -2,0 -3,-1 -5,-2l-96 -94c-3,-3 -4,-7 -4,-12 0,-5 1,-10 4,-12z"/>
  </g>
 </g>
</svg>
