<?xml version="1.0" encoding="UTF-8"?>
<!DOCTYPE svg PUBLIC "-//W3C//DTD SVG 1.1//EN" "http://www.w3.org/Graphics/SVG/1.1/DTD/svg11.dtd">
<!-- Creator: CorelDRAW X8 -->
<svg xmlns="http://www.w3.org/2000/svg" xml:space="preserve" width="312.208mm" height="312.208mm" version="1.1" style="shape-rendering:geometricPrecision; text-rendering:geometricPrecision; image-rendering:optimizeQuality; fill-rule:evenodd; clip-rule:evenodd"
viewBox="0 0 3882 3882"
 xmlns:xlink="http://www.w3.org/1999/xlink">
 <defs>
  <style type="text/css">
   <![CDATA[
    .fil1 {fill:#FEFEFE}
    .fil0 {fill:#61A375}
    .fil2 {fill:#61A375;fill-rule:nonzero}
   ]]>
  </style>
 </defs>
 <g id="Vrstva_x0020_1">
  <metadata id="CorelCorpID_0Corel-Layer"/>
  <circle class="fil0" cx="1941" cy="1941" r="1941"/>
  <path class="fil1" d="M3047 2628l-430 -215c-56,-28 -91,-85 -91,-147l0 -169c12,-13 26,-31 41,-52 58,-83 103,-174 133,-269 56,-17 96,-68 96,-129l0 -180c0,-39 -17,-75 -45,-100l0 -260c0,0 54,-405 -495,-405 -549,0 -495,405 -495,405l0 260c-28,25 -45,61 -45,100l0 180c0,48 25,89 62,114 45,195 163,336 163,336l0 165c0,60 -33,115 -86,144l-401 219c-116,63 -188,185 -188,317l0 146 1980 0 0 -137c0,-137 -77,-262 -199,-323z"/>
  <path class="fil2" d="M3036 2650l-430 -215c-32,-16 -58,-40 -76,-70 -19,-29 -29,-63 -29,-99l0 -178 6 -7c6,-6 12,-14 19,-23 7,-8 14,-18 20,-27l1 0c28,-40 52,-82 74,-125 22,-45 41,-91 56,-138l4 -12 12 -4c23,-7 43,-21 57,-40 13,-18 21,-40 21,-65l0 -180c0,-16 -3,-30 -9,-44 -7,-14 -16,-27 -27,-37l-9 -8 0 -272 0 -2c1,-1 50,-377 -470,-377 -520,0 -471,376 -471,377l1 2 0 272 -9 8c-11,10 -20,23 -27,37 -6,14 -9,28 -9,44l0 180c0,19 5,37 13,53 9,16 22,30 38,40l8 5 2 10c44,190 158,326 158,327l6 6 0 174c0,34 -10,68 -27,96 -17,29 -41,53 -72,70l-401 219c-54,29 -98,72 -128,123 -31,51 -48,110 -48,172l0 121 1931 0 0 -112c0,-64 -17,-125 -50,-177 -32,-52 -78,-96 -135,-124zm-408 -259l430 215c65,32 119,82 156,142 37,60 57,130 57,203l0 162 -2030 0 0 -171c0,-71 19,-138 54,-197 35,-59 85,-108 147,-142l402 -219c22,-12 40,-30 53,-51 12,-21 19,-46 19,-71l0 -156c-24,-31 -118,-159 -160,-331 -19,-13 -34,-31 -45,-52 -13,-22 -20,-48 -20,-76l0 -180c0,-23 5,-45 14,-64 7,-17 18,-33 31,-46l0 -249c-3,-29 -37,-431 520,-431 557,0 523,402 520,431l0 249c13,13 23,29 31,46 9,19 14,41 14,64l0 180c0,36 -12,68 -31,95 -18,23 -42,42 -70,53 -15,46 -33,90 -55,133 -22,45 -48,89 -78,131l0 0c-8,11 -15,21 -22,30 -4,6 -9,12 -14,18l0 159c0,27 7,52 21,73 13,22 32,40 56,52z"/>
  <path class="fil1" d="M1454 2625l267 -146c-1,-1 0,-2 3,-2l131 -71c53,-29 86,-84 86,-144l0 -165c0,0 -48,-57 -94,-149l0 0c0,0 0,0 0,0 -6,-12 -12,-25 -18,-38 -1,-2 -2,-4 -3,-6 -6,-13 -12,-28 -17,-42 0,-1 -1,-2 -1,-3 -5,-13 -10,-27 -14,-41 -1,-3 -2,-7 -3,-11 -5,-15 -9,-31 -13,-47 -37,-24 -62,-65 -62,-113l0 -180c0,-39 17,-75 45,-100l0 -254c-64,-49 -162,-96 -315,-96 -431,0 -450,360 -450,360l0 225c-24,21 -45,52 -45,86l0 156c0,41 21,77 53,98 39,169 170,290 170,290l0 143c0,51 -29,99 -74,124l-302 189c-100,55 -163,160 -163,274l0 126 631 0 0 -146c0,-132 72,-254 188,-317z"/>
  <path class="fil2" d="M1442 2603l260 -142c4,-4 8,-6 13,-8 1,0 2,0 3,0l126 -69c22,-12 40,-30 53,-51 12,-21 19,-46 19,-71l0 -156c-14,-19 -54,-72 -91,-147l0 0 0 0 0 0c-4,-7 -7,-13 -10,-19 -3,-6 -6,-13 -9,-20l-1 -3 0 0c0,0 0,1 -1,-3 -3,-7 -6,-14 -10,-21 -2,-7 -5,-15 -8,-22l0 0 -1 -3c0,0 0,0 0,0l0 -1c-3,-7 -6,-14 -8,-20 -2,-8 -5,-15 -7,-21l0 0 0 -2c-1,-4 -2,-7 -3,-10l0 0c-3,-8 -5,-15 -7,-23 -1,-5 -3,-10 -4,-16 -19,-13 -34,-31 -45,-52 -13,-22 -20,-48 -20,-76l0 -180c0,-23 5,-45 14,-64 7,-17 18,-33 31,-46l0 -232c-28,-20 -64,-40 -107,-55 -49,-17 -110,-28 -183,-28 -393,0 -424,312 -426,335l0 236 -8 7c-11,10 -21,22 -28,36 -5,10 -9,21 -9,32l0 156c0,15 4,30 11,43 8,14 19,25 32,34l8 5 2 10c38,162 162,278 163,278l7 8 0 153c0,30 -8,59 -23,85 -15,25 -37,46 -63,61l-302 189c-46,25 -84,62 -110,105 -25,44 -40,94 -40,147l0 101 581 0 0 -121c0,-71 19,-138 54,-197 35,-59 85,-108 147,-142zm291 -102l-267 146c-54,29 -98,72 -128,123 -31,51 -48,110 -48,172l0 171 -679 0 0 -151c0,-62 16,-121 47,-172 30,-51 74,-94 128,-124l302 -189c19,-10 34,-25 44,-43 11,-17 17,-38 17,-59l0 -132c-29,-30 -130,-140 -167,-287 -16,-12 -29,-27 -39,-45 -11,-20 -17,-43 -17,-67l0 -156c0,-20 5,-38 14,-55 8,-16 19,-30 31,-41l0 -215 0 -2c0,-1 21,-383 475,-383 79,0 145,12 199,31 54,19 97,44 131,70l10 8 0 277 -9 8c-11,10 -20,23 -27,37 -6,14 -9,28 -9,44l0 180c0,19 5,37 13,53 9,16 22,30 37,40l9 5 2 10c2,7 4,15 6,23 2,7 4,15 6,22l0 0c1,4 2,6 3,9l1 2 0 0c2,8 4,14 6,20 3,7 5,14 7,19l0 0 1 2 0 1 0 0c3,7 5,14 8,21 3,7 6,13 9,20 1,3 0,0 1,3l0 0 1 3c3,5 6,12 9,19 3,6 6,12 9,17l3 6c44,87 88,139 88,140l6 7 0 173c0,34 -10,68 -27,96 -17,29 -41,53 -72,70l-104 57 0 0 -30 16zm92 -542l22 -11 0 0 -19 9 -3 2 0 0zm22 -11l-1 0 -18 9 19 -9z"/>
 </g>
</svg>
