<?xml version="1.0" encoding="UTF-8"?>
<!DOCTYPE svg PUBLIC "-//W3C//DTD SVG 1.1//EN" "http://www.w3.org/Graphics/SVG/1.1/DTD/svg11.dtd">
<!-- Creator: CorelDRAW X8 -->
<svg xmlns="http://www.w3.org/2000/svg" xml:space="preserve" width="44.1799mm" height="44.1799mm" version="1.1" style="shape-rendering:geometricPrecision; text-rendering:geometricPrecision; image-rendering:optimizeQuality; fill-rule:evenodd; clip-rule:evenodd"
viewBox="0 0 319 319"
 xmlns:xlink="http://www.w3.org/1999/xlink">
 <defs>
  <style type="text/css">
   <![CDATA[
    .fil1 {fill:#057CC3}
    .fil0 {fill:#6ABBDE}
   ]]>
  </style>
 </defs>
 <g id="Vrstva_x0020_1">
  <metadata id="CorelCorpID_0Corel-Layer"/>
  <path id="_208389664" class="fil0" d="M160 79c44,0 80,36 80,81 0,44 -36,80 -80,80 -45,0 -81,-36 -81,-80 0,-45 36,-81 81,-81z"/>
  <g id="_1871467993360">
   <g>
    <path id="_208358744" class="fil1" d="M160 0c6,0 11,2 15,7 4,4 7,9 7,15 0,6 -3,12 -7,16 -4,4 -9,6 -15,6 -6,0 -12,-2 -16,-6 -4,-4 -6,-10 -6,-16 0,-6 2,-11 6,-15 4,-5 10,-7 16,-7z"/>
    <path class="fil1" d="M131 44l9 0c6,0 13,7 20,7 6,0 13,-7 20,-7l8 0 0 35c-19,-7 -38,-7 -57,0l0 -35z"/>
   </g>
   <g>
    <path id="_208358744_0" class="fil1" d="M160 319c6,0 11,-2 15,-6 4,-4 7,-10 7,-16 0,-6 -3,-11 -7,-15 -4,-4 -9,-7 -15,-7 -6,0 -12,3 -16,7 -4,4 -6,9 -6,15 0,6 2,12 6,16 4,4 10,6 16,6z"/>
    <path class="fil1" d="M131 275l9 0c6,0 13,-6 20,-6 6,0 13,6 20,6l8 0 0 -34c-19,7 -38,6 -57,0l0 34z"/>
   </g>
   <g>
    <path id="_208358744_1" class="fil1" d="M0 160c0,-6 2,-12 7,-16 4,-4 9,-6 15,-6 6,0 12,2 16,6 4,4 6,10 6,16 0,6 -2,11 -6,15 -4,4 -10,7 -16,7 -6,0 -11,-3 -15,-7 -5,-4 -7,-9 -7,-15z"/>
    <path class="fil1" d="M44 188l0 -8c0,-7 7,-14 7,-20 0,-7 -7,-14 -7,-20l0 -9 35 0c-7,19 -7,38 0,57l-35 0z"/>
   </g>
   <g>
    <path id="_208358744_2" class="fil1" d="M319 160c0,-6 -2,-12 -6,-16 -4,-4 -10,-6 -16,-6 -6,0 -11,2 -15,6 -4,4 -7,10 -7,16 0,6 3,11 7,15 4,4 9,7 15,7 6,0 12,-3 16,-7 4,-4 6,-9 6,-15z"/>
    <path class="fil1" d="M275 188l0 -8c0,-7 -6,-14 -6,-20 0,-7 6,-14 6,-20l0 -9 -34 0c7,19 6,38 0,57l34 0z"/>
   </g>
   <g>
    <path id="_208358744_3" class="fil1" d="M47 47c4,-5 10,-7 15,-7 6,0 12,2 16,7 4,4 7,10 7,15 0,6 -3,12 -7,16 -4,4 -10,7 -16,7 -5,0 -11,-3 -15,-7 -5,-4 -7,-10 -7,-16 0,-5 2,-11 7,-15z"/>
    <path class="fil1" d="M58 98l6 -6c5,-4 14,-5 19,-9 4,-5 5,-14 9,-19l6 -6 24 24c-18,9 -31,22 -40,40l-24 -24z"/>
   </g>
   <g>
    <path id="_208358744_4" class="fil1" d="M273 273c4,-5 6,-10 6,-16 0,-6 -2,-11 -6,-16 -5,-4 -10,-6 -16,-6 -6,0 -11,2 -16,6 -4,5 -6,10 -6,16 0,6 2,11 6,16 5,4 10,6 16,6 6,0 11,-2 16,-6z"/>
    <path class="fil1" d="M221 261l6 -6c5,-4 5,-13 10,-18 5,-5 14,-5 18,-10l6 -6 -24 -24c-9,18 -22,31 -40,40l24 24z"/>
   </g>
   <g>
    <path id="_208358744_5" class="fil1" d="M47 273c-5,-5 -7,-10 -7,-16 0,-6 2,-11 7,-16 4,-4 10,-6 15,-6 6,0 12,2 16,6 4,5 7,10 7,16 0,6 -3,11 -7,16 -4,4 -10,6 -16,6 -5,0 -11,-2 -15,-6z"/>
    <path class="fil1" d="M98 261l-6 -6c-4,-4 -5,-13 -9,-18 -5,-5 -14,-5 -19,-10l-6 -6 24 -24c9,18 22,31 40,40l-24 24z"/>
   </g>
   <g>
    <path id="_208358744_6" class="fil1" d="M273 47c-5,-5 -10,-7 -16,-7 -6,0 -11,2 -16,7 -4,4 -6,10 -6,15 0,6 2,12 6,16 5,4 10,7 16,7 6,0 11,-3 16,-7 4,-4 6,-10 6,-16 0,-5 -2,-11 -6,-15z"/>
    <path class="fil1" d="M261 98l-6 -6c-4,-4 -13,-5 -18,-9 -5,-5 -5,-14 -10,-19l-6 -6 -24 24c18,9 31,22 40,40l24 -24z"/>
   </g>
  </g>
 </g>
</svg>
