<?xml version="1.0" encoding="UTF-8"?>
<!DOCTYPE svg PUBLIC "-//W3C//DTD SVG 1.1//EN" "http://www.w3.org/Graphics/SVG/1.1/DTD/svg11.dtd">
<!-- Creator: CorelDRAW X8 -->
<svg xmlns="http://www.w3.org/2000/svg" xml:space="preserve" width="139.875mm" height="44.1799mm" version="1.1" style="shape-rendering:geometricPrecision; text-rendering:geometricPrecision; image-rendering:optimizeQuality; fill-rule:evenodd; clip-rule:evenodd"
viewBox="0 0 2725 861"
 xmlns:xlink="http://www.w3.org/1999/xlink">
 <defs>
  <style type="text/css">
   <![CDATA[
    .fil1 {fill:#057CC3}
    .fil0 {fill:#6ABBDE}
    .fil3 {fill:#057CC3;fill-rule:nonzero}
    .fil2 {fill:#6ABBDE;fill-rule:nonzero}
   ]]>
  </style>
 </defs>
 <g id="Vrstva_x0020_1">
  <metadata id="CorelCorpID_0Corel-Layer"/>
  <g id="_1848575945536">
   <g>
    <path id="_208389664" class="fil0" d="M430 214c120,0 217,97 217,216 0,120 -97,217 -217,217 -119,0 -216,-97 -216,-217 0,-119 97,-216 216,-216z"/>
    <g>
     <g>
      <path id="_208358744" class="fil1" d="M430 0c17,0 32,7 43,18 10,10 17,25 17,42 0,16 -7,31 -17,42 -11,11 -26,18 -43,18 -16,0 -31,-7 -42,-18 -11,-11 -18,-26 -18,-42 0,-17 7,-32 18,-42 11,-11 26,-18 42,-18z"/>
      <path class="fil1" d="M354 119l22 0c18,0 36,18 54,18 18,0 36,-17 54,-17l22 -1 0 93c-50,-18 -101,-18 -152,0l0 -93z"/>
     </g>
     <g>
      <path id="_208358744_0" class="fil1" d="M430 861c17,0 32,-7 43,-18 10,-11 17,-26 17,-42 0,-17 -7,-32 -17,-42 -11,-11 -26,-18 -43,-18 -16,0 -31,7 -42,18 -11,10 -18,25 -18,42 0,16 7,31 18,42 11,11 26,18 42,18z"/>
      <path class="fil1" d="M354 741l22 0c18,0 36,-17 54,-17 18,0 36,17 54,17l22 0 0 -92c-50,18 -101,17 -152,0l0 92z"/>
     </g>
     <g>
      <path id="_208358744_1" class="fil1" d="M0 430c0,-16 7,-31 18,-42 10,-11 25,-18 42,-18 16,0 31,7 42,18 11,11 18,26 18,42 0,17 -7,32 -18,43 -11,10 -26,17 -42,17 -17,0 -32,-7 -42,-17 -11,-11 -18,-26 -18,-43z"/>
      <path class="fil1" d="M119 506l0 -22c0,-18 18,-36 18,-54 0,-18 -17,-36 -17,-54l-1 -22 93 0c-18,51 -18,102 0,152l-93 0z"/>
     </g>
     <g>
      <path id="_208358744_2" class="fil1" d="M861 430c0,-16 -7,-31 -18,-42 -11,-11 -26,-18 -42,-18 -17,0 -32,7 -42,18 -11,11 -18,26 -18,42 0,17 7,32 18,43 10,10 25,17 42,17 16,0 31,-7 42,-17 11,-11 18,-26 18,-43z"/>
      <path class="fil1" d="M741 506l0 -22c0,-18 -17,-36 -17,-54 0,-18 17,-36 17,-54l0 -22 -92 0c18,51 17,102 0,152l92 0z"/>
     </g>
     <g>
      <path id="_208358744_3" class="fil1" d="M126 126c12,-12 27,-17 42,-17 16,0 31,5 43,17 11,12 17,27 17,42 0,16 -6,31 -17,43 -12,11 -27,17 -43,17 -15,0 -30,-6 -42,-17 -12,-12 -17,-27 -17,-43 0,-15 5,-30 17,-42z"/>
      <path class="fil1" d="M157 264l15 -15c13,-13 38,-14 51,-26 12,-13 13,-38 26,-51l15 -15 66 65c-49,23 -85,59 -108,107l-65 -65z"/>
     </g>
     <g>
      <path id="_208358744_4" class="fil1" d="M735 735c11,-12 17,-27 17,-43 0,-15 -6,-30 -17,-42 -12,-12 -27,-18 -43,-18 -15,0 -30,6 -42,18 -12,12 -18,27 -18,42 0,16 6,31 18,43 12,11 27,17 42,17 16,0 31,-6 43,-17z"/>
      <path class="fil1" d="M596 704l16 -16c13,-13 13,-37 26,-50 13,-13 37,-13 50,-26l16 -16 -65 -65c-24,49 -60,84 -108,108l65 65z"/>
     </g>
     <g>
      <path id="_208358744_5" class="fil1" d="M126 735c-12,-12 -17,-27 -17,-43 0,-15 5,-30 17,-42 12,-12 27,-18 42,-18 16,0 31,6 43,18 11,12 17,27 17,42 0,16 -6,31 -17,43 -12,11 -27,17 -43,17 -15,0 -30,-6 -42,-17z"/>
      <path class="fil1" d="M264 704l-15 -16c-13,-13 -14,-37 -26,-50 -13,-13 -38,-13 -51,-26l-15 -16 65 -65c23,49 59,84 107,108l-65 65z"/>
     </g>
     <g>
      <path id="_208358744_6" class="fil1" d="M735 126c-12,-12 -27,-17 -43,-17 -15,0 -30,5 -42,17 -12,12 -18,27 -18,42 0,16 6,31 18,43 12,11 27,17 42,17 16,0 31,-6 43,-17 11,-12 17,-27 17,-43 0,-15 -6,-30 -17,-42z"/>
      <path class="fil1" d="M704 264l-16 -15c-13,-13 -37,-14 -50,-26 -13,-13 -13,-38 -26,-51l-16 -15 -65 65c49,23 84,59 108,107l65 -65z"/>
     </g>
    </g>
   </g>
   <path class="fil2" d="M1202 606c-10,8 -22,15 -38,20 -16,5 -33,8 -50,8 -19,0 -36,-3 -50,-10 -14,-7 -25,-16 -34,-29 -9,-13 -16,-28 -20,-46 -4,-18 -6,-38 -6,-61 0,-50 10,-87 30,-111 19,-24 47,-36 82,-36 12,0 23,2 35,5 11,4 21,10 29,18 9,8 16,20 21,33 6,14 8,32 8,53 0,8 0,17 -1,26 -1,9 -2,19 -4,30l-136 0c0,23 5,41 14,53 9,12 24,18 44,18 12,0 23,-2 32,-5 10,-4 18,-8 23,-12l21 46zm-87 -208c-15,0 -25,5 -33,17 -7,11 -11,27 -12,47l78 0c1,-21 -1,-37 -7,-48 -6,-11 -14,-16 -26,-16z"/>
   <path class="fil3" d="M1291 238l70 0 0 283c0,17 -2,32 -5,46 -2,14 -7,26 -13,36 -6,9 -15,17 -25,22 -11,6 -23,8 -39,8 -11,0 -21,-1 -32,-3 -11,-2 -20,-5 -29,-9l16 -59c8,5 17,7 28,7 13,0 21,-6 24,-16 3,-11 5,-27 5,-47l0 -268zm309 368c-9,8 -22,15 -38,20 -16,5 -32,8 -50,8 -19,0 -35,-3 -49,-10 -14,-7 -26,-16 -35,-29 -8,-13 -15,-28 -19,-46 -5,-18 -7,-38 -7,-61 0,-50 10,-87 30,-111 20,-24 47,-36 83,-36 11,0 23,2 34,5 11,4 21,10 30,18 8,8 16,20 21,33 5,14 8,32 8,53 0,8 0,17 -1,26 -1,9 -3,19 -5,30l-136 0c1,23 6,41 15,53 9,12 23,18 43,18 12,0 23,-2 33,-5 10,-4 17,-8 23,-12l20 46zm-87 -208c-14,0 -25,5 -32,17 -7,11 -11,27 -13,47l78 0c1,-21 -1,-37 -6,-48 -6,-11 -15,-16 -27,-16zm337 131c0,15 0,31 0,47 1,15 2,32 5,51l-47 0 -9 -32 -2 0c-13,26 -35,39 -66,39 -28,0 -51,-11 -67,-33 -16,-23 -24,-59 -24,-109 0,-49 9,-86 26,-111 18,-26 44,-38 78,-38 9,0 16,0 22,1 6,2 12,3 18,6l0 -112 66 0 0 291zm-104 44c10,0 18,-2 24,-7 6,-5 11,-12 14,-22l0 -131c-4,-4 -8,-6 -13,-7 -5,-2 -11,-3 -18,-3 -15,0 -26,7 -33,20 -8,14 -11,37 -11,71 0,26 3,46 9,59 6,14 15,20 28,20zm289 54l0 -169c0,-21 -2,-35 -7,-43 -5,-8 -13,-12 -24,-12 -10,0 -18,3 -25,9 -7,6 -12,13 -15,22l0 193 -66 0 0 -278 52 0 8 32 2 0c6,-11 16,-20 27,-27 11,-8 27,-12 45,-12 11,0 21,2 30,5 8,4 16,9 22,17 6,7 10,17 13,30 3,13 4,29 4,48l0 185 -66 0zm113 -261c11,-7 25,-13 41,-17 17,-4 36,-6 57,-6 31,0 53,8 66,25 12,16 18,39 18,69 0,18 0,35 -1,52 -1,16 -1,33 -2,49 0,16 0,32 1,47 1,15 3,29 7,42l-53 0 -11 -34 -2 0c-6,11 -14,20 -25,27 -11,7 -24,11 -41,11 -22,0 -39,-8 -51,-22 -13,-15 -19,-35 -19,-59 0,-33 11,-57 35,-71 24,-14 56,-20 96,-18 2,-21 1,-37 -4,-47 -4,-9 -14,-14 -30,-14 -11,0 -22,1 -34,4 -12,2 -22,6 -32,11l-16 -49zm79 208c10,0 18,-3 25,-8 6,-5 10,-10 13,-16l0 -46c-8,-1 -16,-1 -24,-1 -8,1 -15,3 -21,5 -5,3 -10,7 -14,12 -3,5 -5,11 -5,19 0,11 2,20 7,26 5,6 11,9 19,9zm5 -347l66 0 0 16 -52 69 -37 0 23 -85zm282 400l0 -169c0,-21 -2,-35 -7,-43 -5,-8 -13,-12 -24,-12 -10,0 -18,3 -25,9 -7,6 -12,13 -15,22l0 193 -66 0 0 -278 52 0 8 32 2 0c7,-11 16,-20 27,-27 12,-8 27,-12 45,-12 11,0 21,2 30,5 9,4 16,9 22,17 6,7 10,17 13,30 3,13 5,29 5,48l0 185 -67 0zm118 -278l66 0 0 278 -66 0 0 -278zm26 -122l67 0 0 16 -53 69 -37 0 23 -85z"/>
  </g>
 </g>
</svg>
