<?xml version="1.0" encoding="UTF-8"?>
<!DOCTYPE svg PUBLIC "-//W3C//DTD SVG 1.1//EN" "http://www.w3.org/Graphics/SVG/1.1/DTD/svg11.dtd">
<!-- Creator: CorelDRAW X8 -->
<svg xmlns="http://www.w3.org/2000/svg" xml:space="preserve" width="139.875mm" height="44.1799mm" version="1.1" style="shape-rendering:geometricPrecision; text-rendering:geometricPrecision; image-rendering:optimizeQuality; fill-rule:evenodd; clip-rule:evenodd"
viewBox="0 0 2773 876"
 xmlns:xlink="http://www.w3.org/1999/xlink">
 <defs>
  <style type="text/css">
   <![CDATA[
    .fil1 {fill:#FEFEFE}
    .fil0 {fill:#6ABBDE}
    .fil3 {fill:#FEFEFE;fill-rule:nonzero}
    .fil2 {fill:#6ABBDE;fill-rule:nonzero}
   ]]>
  </style>
 </defs>
 <g id="Vrstva_x0020_1">
  <metadata id="CorelCorpID_0Corel-Layer"/>
  <g id="_1848575949184">
   <path id="_208389664" class="fil0" d="M438 218c122,0 220,98 220,220 0,122 -98,220 -220,220 -122,0 -220,-98 -220,-220 0,-122 98,-220 220,-220z"/>
   <g>
    <g>
     <path id="_208358744" class="fil1" d="M438 0c17,0 32,7 43,18 11,11 18,26 18,43 0,17 -7,32 -18,43 -11,11 -26,18 -43,18 -17,0 -32,-7 -43,-18 -11,-11 -18,-26 -18,-43 0,-17 7,-32 18,-43 11,-11 26,-18 43,-18z"/>
     <path class="fil1" d="M361 122l22 0c18,0 37,17 55,17 18,0 37,-17 55,-17l22 0 0 93c-51,-18 -103,-17 -154,0l0 -93z"/>
    </g>
    <g>
     <path id="_208358744_0" class="fil1" d="M438 876c17,0 32,-7 43,-18 11,-11 18,-26 18,-43 0,-17 -7,-32 -18,-43 -11,-11 -26,-18 -43,-18 -17,0 -32,7 -43,18 -11,11 -18,26 -18,43 0,17 7,32 18,43 11,11 26,18 43,18z"/>
     <path class="fil1" d="M361 754l22 0c18,0 37,-17 55,-17 18,0 37,17 55,17l22 0 0 -93c-51,18 -103,17 -154,0l0 93z"/>
    </g>
    <g>
     <path id="_208358744_1" class="fil1" d="M0 438c0,-17 7,-32 18,-43 11,-11 26,-18 43,-18 17,0 32,7 43,18 11,11 18,26 18,43 0,17 -7,32 -18,43 -11,11 -26,18 -43,18 -17,0 -32,-7 -43,-18 -11,-11 -18,-26 -18,-43z"/>
     <path class="fil1" d="M122 515l0 -22c0,-18 17,-37 17,-55 0,-18 -17,-37 -17,-55l0 -22 93 0c-18,51 -17,103 0,154l-93 0z"/>
    </g>
    <g>
     <path id="_208358744_2" class="fil1" d="M876 438c0,-17 -7,-32 -18,-43 -11,-11 -26,-18 -43,-18 -17,0 -32,7 -43,18 -11,11 -18,26 -18,43 0,17 7,32 18,43 11,11 26,18 43,18 17,0 32,-7 43,-18 11,-11 18,-26 18,-43z"/>
     <path class="fil1" d="M754 515l0 -22c0,-18 -17,-37 -17,-55 0,-18 17,-37 17,-55l0 -22 -93 0c18,51 17,103 0,154l93 0z"/>
    </g>
    <g>
     <path id="_208358744_3" class="fil1" d="M128 128c12,-12 28,-18 43,-18 16,0 31,6 43,18 12,12 18,28 18,43 0,16 -6,31 -18,43 -12,12 -27,18 -43,18 -15,0 -31,-6 -43,-18 -12,-12 -18,-27 -18,-43 0,-15 6,-31 18,-43z"/>
     <path class="fil1" d="M160 269l15 -16c13,-13 39,-13 52,-26 13,-13 13,-39 26,-51l16 -17 66 67c-49,24 -85,60 -109,109l-66 -66z"/>
    </g>
    <g>
     <path id="_208358744_4" class="fil1" d="M748 748c12,-12 18,-28 18,-43 0,-16 -6,-31 -18,-43 -12,-12 -28,-18 -43,-18 -16,0 -31,6 -43,18 -12,12 -18,27 -18,43 0,15 6,31 18,43 12,12 27,18 43,18 15,0 31,-6 43,-18z"/>
     <path class="fil1" d="M607 716l16 -15c13,-13 13,-39 26,-52 13,-13 39,-13 51,-26l17 -16 -67 -66c-23,49 -60,85 -109,109l66 66z"/>
    </g>
    <g>
     <path id="_208358744_5" class="fil1" d="M128 748c-12,-12 -18,-28 -18,-43 0,-16 6,-31 18,-43 12,-12 28,-18 43,-18 16,0 31,6 43,18 12,12 18,27 18,43 0,15 -6,31 -18,43 -12,12 -27,18 -43,18 -15,0 -31,-6 -43,-18z"/>
     <path class="fil1" d="M269 716l-16 -15c-13,-13 -13,-39 -26,-52 -13,-13 -39,-13 -51,-26l-17 -16 67 -66c24,49 60,85 109,109l-66 66z"/>
    </g>
    <g>
     <path id="_208358744_6" class="fil1" d="M748 128c-12,-12 -28,-18 -43,-18 -16,0 -31,6 -43,18 -12,12 -18,28 -18,43 0,16 6,31 18,43 12,12 27,18 43,18 15,0 31,-6 43,-18 12,-12 18,-27 18,-43 0,-15 -6,-31 -18,-43z"/>
     <path class="fil1" d="M716 269l-15 -16c-13,-13 -39,-13 -52,-26 -13,-13 -13,-39 -26,-51l-16 -17 -66 67c49,24 85,60 109,109l66 -66z"/>
    </g>
   </g>
   <path class="fil2" d="M1223 617c-9,8 -22,15 -38,20 -16,6 -33,8 -51,8 -20,0 -37,-3 -51,-10 -14,-7 -25,-16 -35,-29 -9,-13 -15,-29 -20,-47 -4,-18 -6,-39 -6,-62 0,-51 10,-89 30,-113 20,-25 48,-37 84,-37 12,0 24,2 35,6 12,3 22,9 31,18 8,8 16,19 21,34 5,14 8,32 8,53 0,8 0,17 -1,27 -1,9 -3,19 -4,30l-139 0c1,24 6,42 15,54 9,12 24,19 44,19 12,0 23,-2 33,-6 10,-4 18,-8 23,-12l21 47zm-88 -212c-15,0 -26,6 -33,17 -7,12 -12,28 -13,49l79 0c2,-22 -1,-38 -6,-49 -6,-12 -15,-17 -27,-17z"/>
   <path class="fil3" d="M1314 242l71 0 0 288c0,17 -1,33 -4,47 -3,14 -8,26 -14,36 -6,10 -15,18 -25,24 -11,5 -24,8 -40,8 -11,0 -22,-1 -33,-4 -10,-2 -20,-5 -29,-9l17 -60c8,5 17,7 27,7 14,0 22,-5 25,-17 3,-11 5,-27 5,-47l0 -273zm315 375c-9,8 -22,15 -39,20 -16,6 -33,8 -50,8 -20,0 -37,-3 -51,-10 -14,-7 -26,-16 -35,-29 -9,-13 -16,-29 -20,-47 -4,-18 -6,-39 -6,-62 0,-51 10,-89 30,-113 20,-25 48,-37 84,-37 12,0 24,2 35,6 11,3 21,9 30,18 9,8 16,19 22,34 5,14 8,32 8,53 0,8 -1,17 -2,27 0,9 -2,19 -4,30l-138 0c0,24 5,42 14,54 10,12 24,19 44,19 13,0 24,-2 34,-6 10,-4 18,-8 23,-12l21 47zm-89 -212c-14,0 -25,6 -33,17 -7,12 -11,28 -12,49l79 0c1,-22 -1,-38 -7,-49 -6,-12 -15,-17 -27,-17zm343 133c0,16 0,32 1,48 0,16 1,33 4,53l-47 0 -10 -33 -2 0c-13,26 -35,39 -67,39 -29,0 -51,-11 -68,-34 -16,-22 -24,-59 -24,-110 0,-50 9,-88 26,-113 18,-26 44,-39 79,-39 10,0 17,0 23,2 6,1 12,3 18,5l0 -114 67 0 0 296zm-105 46c10,0 18,-3 24,-8 6,-5 11,-12 14,-22l0 -134c-4,-3 -8,-6 -13,-7 -5,-2 -11,-2 -18,-2 -16,0 -27,6 -34,20 -8,14 -12,38 -12,72 0,26 3,46 10,60 6,14 16,21 29,21zm294 54l0 -172c0,-21 -3,-35 -7,-44 -5,-8 -14,-12 -25,-12 -10,0 -19,3 -26,9 -7,6 -12,14 -15,23l0 196 -67 0 0 -283 53 0 8 33 2 0c7,-11 16,-20 28,-28 11,-8 27,-12 46,-12 11,0 21,2 30,5 9,4 16,9 22,17 6,8 11,18 14,31 3,13 4,29 4,49l0 188 -67 0zm114 -266c12,-7 26,-12 43,-16 17,-4 36,-7 57,-7 32,0 55,9 67,25 13,17 19,41 19,71 0,18 0,35 -1,52 -1,18 -2,34 -2,51 0,16 0,32 1,47 1,16 3,30 7,44l-54 0 -11 -35 -2 0c-6,11 -15,20 -26,27 -11,7 -25,11 -41,11 -22,0 -40,-7 -53,-22 -13,-15 -19,-35 -19,-60 0,-34 12,-58 36,-72 24,-15 57,-21 98,-19 2,-21 1,-37 -4,-47 -5,-10 -15,-15 -30,-15 -12,0 -23,1 -36,4 -12,3 -22,7 -32,11l-17 -50zm81 212c10,0 19,-2 25,-7 6,-5 11,-11 14,-17l0 -47c-9,-1 -17,-1 -25,-1 -8,1 -15,3 -21,5 -6,3 -11,7 -14,12 -4,5 -5,12 -5,20 0,11 2,20 7,26 4,6 11,9 19,9zm5 -353l68 0 0 17 -54 70 -38 0 24 -87zm288 407l0 -172c0,-21 -3,-35 -8,-44 -5,-8 -13,-12 -25,-12 -9,0 -18,3 -25,9 -7,6 -12,14 -15,23l0 196 -68 0 0 -283 54 0 8 33 2 0c6,-11 16,-20 27,-28 12,-8 27,-12 46,-12 12,0 22,2 30,5 9,4 17,9 23,17 6,8 10,18 13,31 3,13 5,29 5,49l0 188 -67 0zm119 -283l67 0 0 283 -67 0 0 -283zm27 -124l67 0 0 17 -53 70 -38 0 24 -87z"/>
  </g>
 </g>
</svg>
